# xmcd CD database file
#
# Track frame offsets:
#	150
#	23830
#	43302
#	57140
#	72433
#	94317
#	108823
#	122100
#	133032
#	147880
#	160670
#	174425
#	191455
#	204320
#	220957
#	236705
#
# Disc length: 3337 seconds
#
# Revision: 0
# Processed by: cddbd v1.5PL3 Copyright (c) Steve Scherf et al.
# Submitted via: CDex 1.51
#
DISCID=e60d0710
DTITLE=David Allen Coe - For The Recoed...The First Ten Years
DYEAR=1984
DGENRE=Country
TTITLE0=You Never Even Called Me by My Name   1975
TTITLE1=Please Come to Boston  1976
TTITLE2=Jody Like a Melody  1974
TTITLE3=Longhaired Redneck  1975
TTITLE4=If That Ain't Country 1977
TTITLE5=Willie, Waylon, And Me  1976
TTITLE6=Take This Job And Shove It  1978
TTITLE7=Just To Prove My Love For You  1977
TTITLE8=Jack Daniels If You Please  1978
TTITLE9=Would You lay with me  1978
TTITLE10=Divers Do It Deeper  1978
TTITLE11=X's and O's  1979
TTITLE12=This Bottle (w/George Jones)  1980
TTITLE13=Get A Little Dirt On (w/bill Anderson)  1980
TTITLE14=Stand By Your Man  1981
TTITLE15=Tennessee Whiskey  1981
EXTD=YEAR: 1984
EXTT0=
EXTT1=
EXTT2=
EXTT3=
EXTT4=
EXTT5=
EXTT6=
EXTT7=
EXTT8=
EXTT9=
EXTT10=
EXTT11=
EXTT12=
EXTT13=
EXTT14=
EXTT15=
PLAYORDER=
